M48
METRIC,TZ
T01C0.7620
T02C1.0160
T03C1.5240
T04C1.2700
T05C1.1430
%
T01
X+46793Y+9263
X+45800Y+16689
X+44128Y+52916
X+44128Y+61820
X+88155Y+49768
X+83124Y+58124
X+49210Y+2533
X+64471Y+6609
X+54200Y+46234
X+54968Y+51816
X+11200Y+24300
X+3580Y+24300
X+16700Y+57800
X+39700Y+57800
X+19700Y+16280
X+19700Y+23900
X+29100Y+39300
X+21480Y+39300
X+78400Y+29300
X+68240Y+29300
X+78400Y+31700
X+68240Y+31700
X+78400Y+34100
X+68240Y+34100
T02
X+9900Y+15700
X+2900Y+15700
X+6300Y+19100
X+19500Y+10900
X+19500Y+3900
X+16100Y+7300
X+16700Y+55300
X+39700Y+55300
X+73300Y+9200
X+73300Y+11700
X+73300Y+14200
X+73300Y+16700
X+73300Y+19200
X+73300Y+21700
X+73300Y+24200
X+73300Y+26700
X+73300Y+29200
X+73300Y+31700
X+73300Y+34200
X+73300Y+36700
X+73300Y+39200
X+73300Y+41700
X+73300Y+44200
X+73300Y+46700
X+73300Y+49200
X+73300Y+51700
X+73300Y+54200
X+73300Y+56700
X+57800Y+56700
X+57800Y+54200
X+57800Y+51700
X+57800Y+49200
X+57800Y+46700
X+57800Y+44200
X+57800Y+41700
X+57800Y+39200
X+57800Y+36700
X+57800Y+34200
X+57800Y+31700
X+57800Y+29200
X+57800Y+26700
X+57800Y+24200
X+57800Y+21700
X+57800Y+19200
X+57800Y+16700
X+57800Y+14200
X+57800Y+11700
X+57800Y+9200
X+80700Y+6100
X+80700Y+8640
X+80700Y+11180
X+90600Y+22420
X+90600Y+19880
X+90600Y+17340
X+90600Y+14800
X+85600Y+34200
X+85600Y+31660
X+85600Y+29120
X+85600Y+26580
X+58000Y+2900
X+55460Y+2900
X+52920Y+2900
X+50300Y+55700
X+50300Y+53160
X+50300Y+50620
X+50300Y+48080
X+50300Y+45540
X+50300Y+43000
X+50300Y+40460
X+50300Y+37920
X+80800Y+52940
X+80800Y+50400
X+50000Y+15800
X+50000Y+13260
T03
X+17000Y+44800
X+5000Y+44800
X+11000Y+46800
X+17000Y+32600
X+5000Y+32600
T04
X+45300Y+45400
X+45300Y+5400
T05
X+26800Y+45400
X+26800Y+5400
M30
