G04 PROTEUS RS274X GERBER FILE*
%FSLAX45Y45*%
%MOMM*%
G01*
%ADD10C,0.762000*%
%ADD11C,1.270000*%
%ADD12C,1.016000*%
%ADD13C,0.254000*%
%ADD14R,2.032000X2.032000*%
%ADD15R,2.286000X2.286000*%
%ADD16C,2.540000*%
%ADD17C,0.203200*%
%TD.AperFunction*%
G36*
X+1834101Y+1157585D02*
X+1815615Y+1139099D01*
X+1743199Y+1139099D01*
X+1743199Y+1177199D01*
X+1336801Y+1177199D01*
X+1336801Y+620672D01*
X+473199Y+620672D01*
X+473199Y+981199D01*
X+211759Y+981199D01*
X+211759Y+1198241D01*
X+1834101Y+1198241D01*
X+1834101Y+1157585D01*
G37*
G36*
X+1821401Y+734689D02*
X+1821401Y+545311D01*
X+1930813Y+435899D01*
X+1803585Y+435899D01*
X+1743199Y+496285D01*
X+1743199Y+808901D01*
X+1895613Y+808901D01*
X+1821401Y+734689D01*
G37*
G36*
X+2818241Y+151759D02*
X+2588599Y+151759D01*
X+2588599Y+314689D01*
X+2576487Y+326801D01*
X+2763199Y+326801D01*
X+2763199Y+354893D01*
X+2807239Y+354893D01*
X+2818241Y+365895D01*
X+2818241Y+151759D01*
G37*
G36*
X+2356801Y+580801D02*
X+2356801Y+448599D01*
X+2265311Y+448599D01*
X+2131401Y+314689D01*
X+2131401Y+151759D01*
X+2075899Y+151759D01*
X+2075899Y+411401D01*
X+2144689Y+411401D01*
X+2278599Y+545311D01*
X+2278599Y+734689D01*
X+2144689Y+868599D01*
X+2012083Y+868599D01*
X+2067585Y+924101D01*
X+2265899Y+924101D01*
X+2265899Y+977601D01*
X+2356801Y+977601D01*
X+2356801Y+580801D01*
G37*
D10*
X+2560000Y+784000D02*
X+2560000Y+819087D01*
X+2586171Y+792916D01*
X+2560000Y+784000D01*
D11*
X+270000Y+778000D02*
X+1059892Y+778000D01*
X+1140886Y+697006D01*
X+1501381Y+697006D01*
X+1514610Y+710235D01*
X+1540000Y+720000D01*
X+270000Y+524000D02*
X+338427Y+455573D01*
X+1438400Y+455573D01*
X+1540000Y+466000D01*
X+1786000Y+220000D01*
X+1860000Y+220000D01*
X+2050000Y+640000D02*
X+1970000Y+720000D01*
X+1540000Y+720000D01*
X+2560000Y+784000D02*
X+2186995Y+784000D01*
X+2169995Y+767000D01*
X+2050000Y+640000D01*
X+2190000Y+500000D01*
X+2190000Y+330000D01*
X+2300000Y+220000D01*
X+2360000Y+220000D01*
D12*
X+2040000Y+1130000D02*
X+2746484Y+1130000D01*
X+2806953Y+1069531D01*
X+2806953Y+570131D01*
X+2744114Y+507292D01*
X+2582708Y+507292D01*
X+2560000Y+530000D01*
D11*
X+2050000Y+1140000D02*
X+2040000Y+1130000D01*
X+1884000Y+974000D01*
X+1540000Y+974000D01*
D10*
X+1834101Y+1157585D02*
X+1815615Y+1139099D01*
X+1743199Y+1139099D01*
X+1743199Y+1177199D01*
X+1336801Y+1177199D01*
X+1336801Y+620672D01*
X+473199Y+620672D01*
X+473199Y+981199D01*
X+211759Y+981199D01*
X+211759Y+1198241D01*
X+1834101Y+1198241D01*
X+1834101Y+1157585D01*
X+1821401Y+734689D02*
X+1821401Y+545311D01*
X+1930813Y+435899D01*
X+1803585Y+435899D01*
X+1743199Y+496285D01*
X+1743199Y+808901D01*
X+1895613Y+808901D01*
X+1821401Y+734689D01*
X+2818241Y+151759D02*
X+2588599Y+151759D01*
X+2588599Y+314689D01*
X+2576487Y+326801D01*
X+2763199Y+326801D01*
X+2763199Y+354893D01*
X+2807239Y+354893D01*
X+2818241Y+365895D01*
X+2818241Y+151759D01*
X+2356801Y+580801D02*
X+2356801Y+448599D01*
X+2265311Y+448599D01*
X+2131401Y+314689D01*
X+2131401Y+151759D01*
X+2075899Y+151759D01*
X+2075899Y+411401D01*
X+2144689Y+411401D01*
X+2278599Y+545311D01*
X+2278599Y+734689D01*
X+2144689Y+868599D01*
X+2012083Y+868599D01*
X+2067585Y+924101D01*
X+2265899Y+924101D01*
X+2265899Y+977601D01*
X+2356801Y+977601D01*
X+2356801Y+580801D01*
D13*
X+270000Y+981199D02*
X+270000Y+778000D01*
X+473199Y+778000D02*
X+270000Y+778000D01*
X+2356801Y+784000D02*
X+2560000Y+784000D01*
X+1743199Y+720000D02*
X+1540000Y+720000D01*
X+1336801Y+720000D02*
X+1540000Y+720000D01*
X+2131401Y+220000D02*
X+2360000Y+220000D01*
X+2588599Y+220000D02*
X+2360000Y+220000D01*
X+2050000Y+868599D02*
X+2050000Y+640000D01*
X+1821401Y+640000D02*
X+2050000Y+640000D01*
X+2278599Y+640000D02*
X+2050000Y+640000D01*
D14*
X+270000Y+524000D03*
X+270000Y+778000D03*
X+2560000Y+530000D03*
X+2560000Y+784000D03*
X+1540000Y+466000D03*
X+1540000Y+720000D03*
X+1540000Y+974000D03*
D15*
X+1860000Y+220000D03*
D16*
X+2360000Y+220000D03*
D15*
X+2050000Y+1140000D03*
D16*
X+2050000Y+640000D03*
D17*
X+100000Y+40000D02*
X+2930000Y+40000D01*
X+2930000Y+1310000D01*
X+100000Y+1310000D01*
X+100000Y+40000D01*
M02*
